<svg xmlns="http://www.w3.org/2000/svg" viewBox="0 0 465.567 169.175">
  <title>Asset 1</title>
  <g id="Layer_2" data-name="Layer 2">
    <g id="Layer_1-2" data-name="Layer 1">
      <g>
        <g>
          <path d="M239.031,0q21.96,1.8,21.961,4.77a7.656,7.656,0,0,1-3.51.54q20.07,14.851,23.131,26.191,4.768,6.75,7.74,21.961.629,7.111,3.51,7.11,4.768,0,4.77,3.51v4.14q0,1.261-1.17,1.26-2.43,0-2.43-.63l-4.14.63h-5.94v1.17l4.14.54a5.359,5.359,0,0,0,2.43-.54q6.48.721,6.48,1.8a4.271,4.271,0,0,1,1.8-.63l1.17.63a4.74,4.74,0,0,1,2.43-.63q.81,0,1.8,1.8v.54q0,.9-1.8,1.8h-5.94V87.844q-2.522,29.522-6.57,34.472H277.643v1.71q3.6,0,3.6,2.43,2.338,0,2.34,1.8-9.543,23.221-28.531,32.042-9,4.679-24.931,4.68h-.54q-34.832,0-48.062-19.531-5.851-5.31-10.711-18.451-1.8,0-5.94-2.97-3.6,0-3.6-1.17l1.26-.54h4.14l4.14-.63v.63a4.271,4.271,0,0,1,1.8-.63q-5.4-19.89-5.4-29.7,3.6-.719,3.6-1.8v-3.51q-.632-1.8-3.6-1.8v-8.28q.178-1.169,1.17-1.17h4.77c.419,0,.63.18.63.54a4.759,4.759,0,0,1,1.8-.54v-1.8c0-.779-.421-1.17-1.26-1.17h-5.94l-1.71-1.26h-9.54a1.034,1.034,0,0,1-1.17-1.17v-.54a6.926,6.926,0,0,0,3.6-.63l1.17.63,1.17-.63a.557.557,0,0,1,.63.63q7.649,0,7.65-2.97a20.243,20.243,0,0,0,.63-5.4v-.54h-4.77c-.782,0-1.17-.419-1.17-1.26a221.715,221.715,0,0,1,5.94-22.5l7.11-13.681Q192.407,4.77,205.19,4.77A127.536,127.536,0,0,1,239.031,0ZM206.99,60.573h4.14q.9,0,1.8,1.71-.451,7.2-2.34,7.2h-4.14a4.73,4.73,0,0,1-2.43-.63q-5.94.631-5.94,1.8,3.6,0,3.6,1.17,2.338-.449,2.34-1.17,7.738.721,7.74,1.8l1.17-.63h2.97q.9,0,2.34,2.34,0,.9-1.71,1.8h-5.94c-.782.121-1.17.51-1.17,1.17V83.7q3.51,2.251,3.51,2.97v3.51q-2.97,1.8-2.97,2.97,0,17.1,5.94,27.9l-1.8,1.26h-9.45v.54q0,1.171,5.94,1.8,0,2.071,5.31,2.34,5.4,7.111,11.881,7.11,7.83-1.709,11.251-7.11-3.151-2.97-4.14-2.97a1.033,1.033,0,0,1-1.17-1.17l1.17-.54h5.94a4.264,4.264,0,0,0,2.34-.63l1.26.63q6.21,0,8.91-33.3V78.394a19.326,19.326,0,0,1-.63-2.43l1.17-.54h7.11v-1.8a1.035,1.035,0,0,0-1.17-1.17h-4.77a41.462,41.462,0,0,1-4.68-1.26h-7.74a1.033,1.033,0,0,1-1.17-1.17l.54-1.17a4.74,4.74,0,0,1,2.43.63,69.467,69.467,0,0,1,8.28-.63h1.8v-1.8q0-6.48-2.97-6.48-5.4,0-5.4-8.37-5.041-15.57-13.051-19.531-5.041-1.8-5.31-1.8Q212.749,30.872,206.99,60.573Zm23.761,64.083.63,1.17-1.26.63h-.54v-.63Q229.759,124.657,230.751,124.656Zm7.74-55.173.54,1.17-1.17.54-.54-1.17Zm1.17-36.272v.63h1.17v-.63Z" style="fill: #00eafd"/>
          <path d="M253.334,3.747q21.96,1.8,21.961,4.77a7.656,7.656,0,0,1-3.51.54q20.07,14.851,23.131,26.191,4.768,6.75,7.74,21.961.629,7.111,3.51,7.11,4.768,0,4.77,3.51v4.14q0,1.261-1.17,1.26-2.43,0-2.43-.63l-4.14.63h-5.94V74.4l4.14.54a5.359,5.359,0,0,0,2.43-.54q6.48.721,6.48,1.8a4.271,4.271,0,0,1,1.8-.63l1.17.63a4.74,4.74,0,0,1,2.43-.63q.81,0,1.8,1.8v.54q0,.9-1.8,1.8h-5.94V91.591q-2.522,29.522-6.57,34.472H291.946v1.71q3.6,0,3.6,2.43,2.338,0,2.34,1.8-9.543,23.221-28.531,32.042-9,4.679-24.931,4.68h-.54q-34.832,0-48.062-19.531-5.851-5.31-10.711-18.451-1.8,0-5.94-2.97-3.6,0-3.6-1.17l1.26-.54h4.14l4.14-.63v.63a4.271,4.271,0,0,1,1.8-.63q-5.4-19.89-5.4-29.7,3.6-.719,3.6-1.8v-3.51q-.632-1.8-3.6-1.8V80.34q.178-1.169,1.17-1.17h4.77c.419,0,.63.18.63.54a4.759,4.759,0,0,1,1.8-.54v-1.8c0-.779-.421-1.17-1.26-1.17h-5.94l-1.71-1.26h-9.54a1.034,1.034,0,0,1-1.17-1.17v-.54a6.926,6.926,0,0,0,3.6-.63l1.17.63,1.17-.63a.557.557,0,0,1,.63.63q7.649,0,7.65-2.97a20.243,20.243,0,0,0,.63-5.4v-.54h-4.77c-.782,0-1.17-.419-1.17-1.26a221.715,221.715,0,0,1,5.94-22.5l7.11-13.681Q206.71,8.517,219.492,8.517A127.536,127.536,0,0,1,253.334,3.747ZM221.292,64.32h4.14q.9,0,1.8,1.71-.451,7.2-2.34,7.2h-4.14a4.73,4.73,0,0,1-2.43-.63q-5.94.631-5.94,1.8,3.6,0,3.6,1.17,2.338-.449,2.34-1.17,7.738.721,7.74,1.8l1.17-.63h2.97q.9,0,2.34,2.34,0,.9-1.71,1.8h-5.94c-.782.121-1.17.51-1.17,1.17v6.57q3.51,2.251,3.51,2.97v3.51q-2.97,1.8-2.97,2.97,0,17.1,5.94,27.9l-1.8,1.26h-9.45v.54q0,1.171,5.94,1.8,0,2.071,5.31,2.34,5.4,7.111,11.881,7.11,7.83-1.709,11.251-7.11-3.151-2.97-4.14-2.97a1.033,1.033,0,0,1-1.17-1.17l1.17-.54h5.94a4.264,4.264,0,0,0,2.34-.63l1.26.63q6.21,0,8.91-33.3V82.141a19.326,19.326,0,0,1-.63-2.43l1.17-.54h7.11v-1.8a1.035,1.035,0,0,0-1.17-1.17h-4.77a41.462,41.462,0,0,1-4.68-1.26h-7.74a1.033,1.033,0,0,1-1.17-1.17l.54-1.17a4.74,4.74,0,0,1,2.43.63,69.467,69.467,0,0,1,8.28-.63h1.8V70.8q0-6.48-2.97-6.48-5.4,0-5.4-8.37-5.041-15.57-13.051-19.531-5.041-1.8-5.31-1.8Q227.052,34.618,221.292,64.32ZM245.054,128.4l.63,1.17-1.26.63h-.54v-.63Q244.061,128.4,245.054,128.4Zm7.74-55.173.54,1.17-1.17.54-.54-1.17Zm1.17-36.272v.63h1.17v-.63Z" style="fill: #b31d20"/>
          <path d="M243.388,3.747q21.96,1.8,21.961,4.77a7.656,7.656,0,0,1-3.51.54q20.07,14.851,23.131,26.191,4.768,6.75,7.74,21.961.629,7.111,3.51,7.11,4.768,0,4.77,3.51v4.14q0,1.261-1.17,1.26-2.43,0-2.43-.63l-4.14.63h-5.94V74.4l4.14.54a5.359,5.359,0,0,0,2.43-.54q6.48.721,6.48,1.8a4.271,4.271,0,0,1,1.8-.63l1.17.63a4.74,4.74,0,0,1,2.43-.63q.81,0,1.8,1.8v.54q0,.9-1.8,1.8h-5.94V91.591q-2.522,29.522-6.57,34.472H282v1.71q3.6,0,3.6,2.43,2.338,0,2.34,1.8-9.543,23.221-28.531,32.042-9,4.679-24.931,4.68h-.54q-34.832,0-48.062-19.531-5.851-5.31-10.711-18.451-1.8,0-5.94-2.97-3.6,0-3.6-1.17l1.26-.54h4.14l4.14-.63v.63a4.271,4.271,0,0,1,1.8-.63q-5.4-19.89-5.4-29.7,3.6-.719,3.6-1.8v-3.51q-.632-1.8-3.6-1.8V80.34q.178-1.169,1.17-1.17h4.77c.419,0,.63.18.63.54a4.759,4.759,0,0,1,1.8-.54v-1.8c0-.779-.421-1.17-1.26-1.17h-5.94l-1.71-1.26h-9.54a1.034,1.034,0,0,1-1.17-1.17v-.54a6.926,6.926,0,0,0,3.6-.63l1.17.63,1.17-.63a.557.557,0,0,1,.63.63q7.649,0,7.65-2.97a20.243,20.243,0,0,0,.63-5.4v-.54h-4.77c-.782,0-1.17-.419-1.17-1.26a221.715,221.715,0,0,1,5.94-22.5l7.11-13.681Q196.764,8.517,209.547,8.517A127.536,127.536,0,0,1,243.388,3.747ZM211.347,64.32h4.14q.9,0,1.8,1.71-.451,7.2-2.34,7.2h-4.14a4.73,4.73,0,0,1-2.43-.63q-5.94.631-5.94,1.8,3.6,0,3.6,1.17,2.338-.449,2.34-1.17,7.738.721,7.74,1.8l1.17-.63h2.97q.9,0,2.34,2.34,0,.9-1.71,1.8h-5.94c-.782.121-1.17.51-1.17,1.17v6.57q3.51,2.251,3.51,2.97v3.51q-2.97,1.8-2.97,2.97,0,17.1,5.94,27.9l-1.8,1.26h-9.45v.54q0,1.171,5.94,1.8,0,2.071,5.31,2.34,5.4,7.111,11.881,7.11,7.83-1.709,11.251-7.11-3.151-2.97-4.14-2.97a1.033,1.033,0,0,1-1.17-1.17l1.17-.54h5.94a4.264,4.264,0,0,0,2.34-.63l1.26.63q6.21,0,8.91-33.3V82.141a19.326,19.326,0,0,1-.63-2.43l1.17-.54h7.11v-1.8a1.035,1.035,0,0,0-1.17-1.17h-4.77a41.462,41.462,0,0,1-4.68-1.26h-7.74a1.033,1.033,0,0,1-1.17-1.17l.54-1.17a4.74,4.74,0,0,1,2.43.63,69.467,69.467,0,0,1,8.28-.63h1.8V70.8q0-6.48-2.97-6.48-5.4,0-5.4-8.37-5.041-15.57-13.051-19.531-5.041-1.8-5.31-1.8Q217.106,34.618,211.347,64.32ZM235.108,128.4l.63,1.17-1.26.63h-.54v-.63Q234.116,128.4,235.108,128.4Zm7.74-55.173.54,1.17-1.17.54-.54-1.17Zm1.17-36.272v.63h1.17v-.63Z" style="fill: #fff"/>
        </g>
        <g>
          <g>
            <path d="M79.924,0h50.131a1.19,1.19,0,0,1,1.172,1.26V63.453q0,1.261-1.172,1.26h-5.489v3.06a.557.557,0,0,1-.63.63,4.285,4.285,0,0,1,.63,1.8c1.621,0,2.429-.21,2.429-.63l4.232.63h8.548c.6,0,1.2.6,1.8,1.8,0,.841-.391,1.26-1.168,1.26h-7.92l-3.06.63V85.5c0,.78-.421,1.17-1.26,1.17h-9.092l-.63,3.06v7.92q.179,1.261,1.17,1.26h12.24v17.1q0,1.171-2.428,1.17v2.43h9.72c.839.121,1.26.54,1.26,1.26v8.55c0,.78-.421,1.17-1.26,1.17h-6.033a4.914,4.914,0,0,0-2.52.63,4.439,4.439,0,0,0-2.428-.63q-.81,0-1.8,3.06.27,1.89,3.06,4.32v5.49h4.228c.839.121,1.26.51,1.26,1.17q0,.9-1.8,1.89H122.676v1.17l4.319,2.43v14.041a1.114,1.114,0,0,1-1.26,1.26h-3.059a.557.557,0,0,1-.63-.63l-1.17.63H98.915q-5.221,0-15.3-.63V148.958l-2.43-.63a4.285,4.285,0,0,1-1.8.63v-2.43h1.17q3.24,0,10.441-.63v-1.26q0-1.169-1.26-1.17l-1.26.63q-2.611,0-2.97-7.38-2.16,0-2.52-5.49l-1.17-.63H17.1q-3.331,0-8.55-.54a5.359,5.359,0,0,1-2.43.54l-.63-1.17q4.86-8.1,4.86-8.55,0-1.26-1.17-1.26H1.26q-1.26,0-1.26-1.17,5.041-1.439,6.75-5.49Q16.83,91.536,21.331,86.674h7.38q4.139,0,7.92-10.981l2.43-2.43H49.413A1.114,1.114,0,0,0,50.673,72v-1.17h-.63Q35.911,70.2,35.372,70.2c0-.419-.18-.63-.54-.63q1.62-4.139,3.6-5.49h6.12Q55.982,43.832,75.064,7.29A18.494,18.494,0,0,1,79.924,0ZM29.341,70.834h1.17v.63q0,.81-1.8,1.8A1.113,1.113,0,0,1,27.451,72ZM71.464,86.674h-7.38q-4.231,0-9.18,12.241H75.694V87.3l.63-1.26,3.06.63h2.43l4.23-.63V73.894l-3.06-.63h-1.17q-4.681,0-7.38,9.72Q72.093,86.676,71.464,86.674Zm2.97,59.223q1.26.181,1.26,1.17v.63a1.114,1.114,0,0,1-1.26,1.26h-.54a1.114,1.114,0,0,1-1.26-1.26Q72.634,146.887,74.434,145.9Zm1.26-76.324a.557.557,0,0,1,.63.63l1.17-.63a4.73,4.73,0,0,0,2.43.63l.63-1.26v-4.23h-.63Q76.323,64.713,75.694,69.574Zm10.351-8.55v3.06h.63q1.26,0,1.26-1.17v-1.89ZM90.995,72v.63h1.8a4.74,4.74,0,0,1,2.43.63,4.74,4.74,0,0,1,2.43-.63V72a1.035,1.035,0,0,0-1.17-1.17h-4.32Q90.994,71.015,90.995,72Z" style="fill: #00eafd"/>
            <path d="M94.227,3.747h50.131a1.19,1.19,0,0,1,1.172,1.26V67.2q0,1.261-1.172,1.26h-5.489v3.06a.557.557,0,0,1-.63.63,4.285,4.285,0,0,1,.63,1.8c1.621,0,2.429-.21,2.429-.63l4.232.63h8.548c.6,0,1.2.6,1.8,1.8,0,.841-.391,1.26-1.168,1.26h-7.92l-3.06.63V89.251c0,.78-.421,1.17-1.26,1.17h-9.092l-.63,3.06v7.92q.179,1.261,1.17,1.26h12.24v17.1q0,1.171-2.428,1.17v2.43h9.72c.839.121,1.26.54,1.26,1.26v8.55c0,.78-.421,1.17-1.26,1.17h-6.033a4.914,4.914,0,0,0-2.52.63,4.439,4.439,0,0,0-2.428-.63q-.81,0-1.8,3.06.27,1.89,3.06,4.32v5.49h4.228c.839.121,1.26.51,1.26,1.17q0,.9-1.8,1.89H136.979v1.17l4.319,2.43v14.041a1.114,1.114,0,0,1-1.26,1.26h-3.059a.557.557,0,0,1-.63-.63l-1.17.63H113.218q-5.221,0-15.3-.63V152.7l-2.43-.63a4.285,4.285,0,0,1-1.8.63v-2.43h1.17q3.24,0,10.441-.63v-1.26q0-1.169-1.26-1.17l-1.26.63q-2.611,0-2.97-7.38-2.16,0-2.52-5.49l-1.17-.63H31.4q-3.331,0-8.55-.54a5.359,5.359,0,0,1-2.43.54l-.63-1.17q4.86-8.1,4.86-8.55,0-1.26-1.17-1.26h-7.92q-1.26,0-1.26-1.17,5.041-1.439,6.75-5.49,10.079-21.42,14.581-26.281h7.38q4.139,0,7.92-10.981l2.43-2.43H63.715a1.114,1.114,0,0,0,1.26-1.26V74.58h-.63q-14.131-.629-14.671-.63c0-.419-.18-.63-.54-.63q1.62-4.139,3.6-5.49h6.12Q70.284,47.579,89.366,11.037A18.494,18.494,0,0,1,94.227,3.747ZM43.644,74.58h1.17v.63q0,.81-1.8,1.8a1.113,1.113,0,0,1-1.26-1.26ZM85.766,90.421h-7.38q-4.231,0-9.18,12.241H90V91.051l.63-1.26,3.06.63h2.43l4.23-.63V77.64l-3.06-.63h-1.17q-4.681,0-7.38,9.72Q86.4,90.422,85.766,90.421Zm2.97,59.223q1.26.181,1.26,1.17v.63a1.114,1.114,0,0,1-1.26,1.26H88.2a1.114,1.114,0,0,1-1.26-1.26Q86.936,150.634,88.736,149.644ZM90,73.32a.557.557,0,0,1,.63.63l1.17-.63a4.73,4.73,0,0,0,2.43.63l.63-1.26V68.46h-.63Q90.626,68.46,90,73.32Zm10.351-8.55v3.06h.63q1.26,0,1.26-1.17V64.77ZM105.3,75.75v.63h1.8a4.74,4.74,0,0,1,2.43.63,4.74,4.74,0,0,1,2.43-.63v-.63a1.035,1.035,0,0,0-1.17-1.17h-4.32Q105.3,74.761,105.3,75.75Z" style="fill: #b31d20"/>
            <path d="M84.281,3.747h50.131a1.19,1.19,0,0,1,1.172,1.26V67.2q0,1.261-1.172,1.26h-5.489v3.06a.557.557,0,0,1-.63.63,4.285,4.285,0,0,1,.63,1.8c1.621,0,2.429-.21,2.429-.63l4.232.63h8.548c.6,0,1.2.6,1.8,1.8,0,.841-.391,1.26-1.168,1.26h-7.92l-3.06.63V89.251c0,.78-.421,1.17-1.26,1.17h-9.092l-.63,3.06v7.92q.179,1.261,1.17,1.26h12.24v17.1q0,1.171-2.428,1.17v2.43h9.72c.839.121,1.26.54,1.26,1.26v8.55c0,.78-.421,1.17-1.26,1.17h-6.033a4.914,4.914,0,0,0-2.52.63,4.439,4.439,0,0,0-2.428-.63q-.81,0-1.8,3.06.27,1.89,3.06,4.32v5.49h4.228c.839.121,1.26.51,1.26,1.17q0,.9-1.8,1.89H127.033v1.17l4.319,2.43v14.041a1.114,1.114,0,0,1-1.26,1.26h-3.059a.557.557,0,0,1-.63-.63l-1.17.63H103.272q-5.221,0-15.3-.63V152.7l-2.43-.63a4.285,4.285,0,0,1-1.8.63v-2.43h1.17q3.24,0,10.441-.63v-1.26q0-1.169-1.26-1.17l-1.26.63q-2.611,0-2.97-7.38-2.16,0-2.52-5.49l-1.17-.63H21.458q-3.331,0-8.55-.54a5.359,5.359,0,0,1-2.43.54l-.63-1.17q4.86-8.1,4.86-8.55,0-1.26-1.17-1.26H5.617q-1.26,0-1.26-1.17,5.041-1.439,6.75-5.49,10.079-21.42,14.581-26.281h7.38q4.139,0,7.92-10.981l2.43-2.43H53.77a1.114,1.114,0,0,0,1.26-1.26V74.58H54.4q-14.131-.629-14.671-.63c0-.419-.18-.63-.54-.63q1.62-4.139,3.6-5.49h6.12Q60.339,47.579,79.421,11.037A18.494,18.494,0,0,1,84.281,3.747ZM33.7,74.58h1.17v.63q0,.81-1.8,1.8a1.113,1.113,0,0,1-1.26-1.26ZM75.821,90.421H68.44q-4.231,0-9.18,12.241H80.051V91.051l.63-1.26,3.06.63h2.43l4.23-.63V77.64l-3.06-.63h-1.17q-4.681,0-7.38,9.72Q76.45,90.422,75.821,90.421Zm2.97,59.223q1.26.181,1.26,1.17v.63a1.114,1.114,0,0,1-1.26,1.26h-.54a1.114,1.114,0,0,1-1.26-1.26Q76.991,150.634,78.791,149.644Zm1.26-76.324a.557.557,0,0,1,.63.63l1.17-.63a4.73,4.73,0,0,0,2.43.63l.63-1.26V68.46h-.63Q80.68,68.46,80.051,73.32ZM90.4,64.77v3.06h.63q1.26,0,1.26-1.17V64.77Zm4.95,10.981v.63h1.8a4.74,4.74,0,0,1,2.43.63,4.74,4.74,0,0,1,2.43-.63v-.63a1.035,1.035,0,0,0-1.17-1.17h-4.32Q95.351,74.761,95.352,75.75Z" style="fill: #fff"/>
          </g>
          <g>
            <path d="M389.611,0h50.133a1.189,1.189,0,0,1,1.17,1.26V63.453q0,1.261-1.17,1.26h-5.49v3.06a.557.557,0,0,1-.63.63,4.285,4.285,0,0,1,.63,1.8q2.43,0,2.43-.63l4.23.63h8.55q.9,0,1.8,1.8,0,1.261-1.17,1.26h-7.92l-3.06.63V85.5c0,.78-.421,1.17-1.26,1.17h-9.09l-.63,3.06v7.92q.178,1.261,1.17,1.26h12.241v17.1q0,1.171-2.43,1.17v2.43h9.72c.839.121,1.26.54,1.26,1.26v8.55c0,.78-.421,1.17-1.26,1.17H442.8a4.914,4.914,0,0,0-2.52.63,4.447,4.447,0,0,0-2.43-.63q-.81,0-1.8,3.06.27,1.89,3.06,4.32v5.49h4.23c.839.121,1.26.51,1.26,1.17q0,.9-1.8,1.89H432.363v1.17l4.32,2.43v14.041a1.114,1.114,0,0,1-1.26,1.26h-3.06a.557.557,0,0,1-.63-.63l-1.17.63H408.6q-5.222,0-15.3-.63V148.958l-2.43-.63a4.29,4.29,0,0,1-1.8.63v-2.43h1.17q3.24,0,10.441-.63v-1.26c0-.779-.421-1.17-1.26-1.17l-1.26.63q-2.611,0-2.97-7.38-2.16,0-2.52-5.49l-1.17-.63H326.788q-3.332,0-8.55-.54a5.359,5.359,0,0,1-2.43.54l-.63-1.17q4.86-8.1,4.86-8.55,0-1.26-1.17-1.26h-7.92c-.839,0-1.26-.39-1.26-1.17q5.041-1.439,6.75-5.49,10.079-21.42,14.581-26.281h7.38q4.139,0,7.92-10.981l2.43-2.43H359.1a1.114,1.114,0,0,0,1.26-1.26v-1.17h-.63Q345.6,70.2,345.059,70.2c0-.419-.18-.63-.54-.63q1.62-4.139,3.6-5.49h6.12Q365.669,43.832,384.751,7.29A18.47,18.47,0,0,1,389.611,0ZM339.028,70.834h1.17v.63q0,.81-1.8,1.8a1.113,1.113,0,0,1-1.26-1.26ZM381.15,86.674h-7.38q-4.231,0-9.18,12.241h20.791V87.3l.63-1.26,3.06.63h2.43l4.23-.63V73.894l-3.06-.63H391.5q-4.682,0-7.38,9.72Q381.779,86.676,381.15,86.674Zm2.97,59.223c.839.121,1.26.51,1.26,1.17v.63a1.114,1.114,0,0,1-1.26,1.26h-.54a1.114,1.114,0,0,1-1.26-1.26Q382.32,146.887,384.121,145.9Zm1.26-76.324a.557.557,0,0,1,.63.63l1.17-.63a4.73,4.73,0,0,0,2.43.63l.63-1.26v-4.23h-.63Q386.008,64.713,385.381,69.574Zm10.351-8.55v3.06h.63c.839,0,1.26-.39,1.26-1.17v-1.89ZM400.681,72v.63h1.8a4.74,4.74,0,0,1,2.43.63,4.74,4.74,0,0,1,2.43-.63V72a1.035,1.035,0,0,0-1.17-1.17h-4.32C401.07,70.954,400.681,71.344,400.681,72Z" style="fill: #00eafd"/>
            <path d="M403.913,3.747h50.133a1.189,1.189,0,0,1,1.17,1.26V67.2q0,1.261-1.17,1.26h-5.49v3.06a.557.557,0,0,1-.63.63,4.285,4.285,0,0,1,.63,1.8q2.43,0,2.43-.63l4.23.63h8.55q.9,0,1.8,1.8,0,1.261-1.17,1.26h-7.92l-3.06.63V89.251c0,.78-.421,1.17-1.26,1.17h-9.09l-.63,3.06v7.92q.178,1.261,1.17,1.26h12.241v17.1q0,1.171-2.43,1.17v2.43h9.72c.839.121,1.26.54,1.26,1.26v8.55c0,.78-.421,1.17-1.26,1.17h-6.03a4.914,4.914,0,0,0-2.52.63,4.447,4.447,0,0,0-2.43-.63q-.81,0-1.8,3.06.27,1.89,3.06,4.32v5.49h4.23c.839.121,1.26.51,1.26,1.17q0,.9-1.8,1.89H446.666v1.17l4.32,2.43v14.041a1.114,1.114,0,0,1-1.26,1.26h-3.06a.557.557,0,0,1-.63-.63l-1.17.63H422.9q-5.222,0-15.3-.63V152.7l-2.43-.63a4.29,4.29,0,0,1-1.8.63v-2.43h1.17q3.24,0,10.441-.63v-1.26c0-.779-.421-1.17-1.26-1.17l-1.26.63q-2.611,0-2.97-7.38-2.16,0-2.52-5.49l-1.17-.63H341.09q-3.332,0-8.55-.54a5.359,5.359,0,0,1-2.43.54l-.63-1.17q4.86-8.1,4.86-8.55,0-1.26-1.17-1.26h-7.92c-.839,0-1.26-.39-1.26-1.17q5.041-1.439,6.75-5.49,10.079-21.42,14.581-26.281h7.38q4.139,0,7.92-10.981l2.43-2.43H373.4a1.114,1.114,0,0,0,1.26-1.26V74.58h-.63q-14.133-.629-14.671-.63c0-.419-.18-.63-.54-.63q1.62-4.139,3.6-5.49h6.12q11.429-20.251,30.512-56.793A18.47,18.47,0,0,1,403.913,3.747ZM353.331,74.58h1.17v.63q0,.81-1.8,1.8a1.113,1.113,0,0,1-1.26-1.26Zm42.122,15.841h-7.38q-4.231,0-9.18,12.241h20.791V91.051l.63-1.26,3.06.63h2.43l4.23-.63V77.64l-3.06-.63H405.8q-4.682,0-7.38,9.72Q396.082,90.422,395.453,90.421Zm2.97,59.223c.839.121,1.26.51,1.26,1.17v.63a1.114,1.114,0,0,1-1.26,1.26h-.54a1.114,1.114,0,0,1-1.26-1.26Q396.623,150.634,398.423,149.644Zm1.26-76.324a.557.557,0,0,1,.63.63l1.17-.63a4.73,4.73,0,0,0,2.43.63l.63-1.26V68.46h-.63Q400.311,68.46,399.683,73.32Zm10.351-8.55v3.06h.63c.839,0,1.26-.39,1.26-1.17V64.77Zm4.95,10.981v.63h1.8a4.74,4.74,0,0,1,2.43.63,4.74,4.74,0,0,1,2.43-.63v-.63a1.035,1.035,0,0,0-1.17-1.17h-4.32C415.373,74.7,414.984,75.091,414.984,75.75Z" style="fill: #b31d20"/>
            <path d="M393.968,3.747H444.1a1.189,1.189,0,0,1,1.17,1.26V67.2q0,1.261-1.17,1.26h-5.49v3.06a.557.557,0,0,1-.63.63,4.285,4.285,0,0,1,.63,1.8q2.43,0,2.43-.63l4.23.63h8.55q.9,0,1.8,1.8,0,1.261-1.17,1.26h-7.92l-3.06.63V89.251c0,.78-.421,1.17-1.26,1.17h-9.09l-.63,3.06v7.92q.178,1.261,1.17,1.26H445.9v17.1q0,1.171-2.43,1.17v2.43h9.72c.839.121,1.26.54,1.26,1.26v8.55c0,.78-.421,1.17-1.26,1.17h-6.03a4.914,4.914,0,0,0-2.52.63,4.447,4.447,0,0,0-2.43-.63q-.81,0-1.8,3.06.27,1.89,3.06,4.32v5.49h4.23c.839.121,1.26.51,1.26,1.17q0,.9-1.8,1.89H436.72v1.17l4.32,2.43v14.041a1.114,1.114,0,0,1-1.26,1.26h-3.06a.557.557,0,0,1-.63-.63l-1.17.63H412.959q-5.222,0-15.3-.63V152.7l-2.43-.63a4.29,4.29,0,0,1-1.8.63v-2.43h1.17q3.24,0,10.441-.63v-1.26c0-.779-.421-1.17-1.26-1.17l-1.26.63q-2.611,0-2.97-7.38-2.16,0-2.52-5.49l-1.17-.63H331.145q-3.332,0-8.55-.54a5.359,5.359,0,0,1-2.43.54l-.63-1.17q4.86-8.1,4.86-8.55,0-1.26-1.17-1.26H315.3c-.839,0-1.26-.39-1.26-1.17q5.041-1.439,6.75-5.49,10.079-21.42,14.581-26.281h7.38q4.139,0,7.92-10.981l2.43-2.43h10.351a1.114,1.114,0,0,0,1.26-1.26V74.58h-.63q-14.133-.629-14.671-.63c0-.419-.18-.63-.54-.63q1.62-4.139,3.6-5.49h6.12q11.429-20.251,30.512-56.793A18.47,18.47,0,0,1,393.968,3.747ZM343.385,74.58h1.17v.63q0,.81-1.8,1.8a1.113,1.113,0,0,1-1.26-1.26Zm42.122,15.841h-7.38q-4.231,0-9.18,12.241h20.791V91.051l.63-1.26,3.06.63h2.43l4.23-.63V77.64l-3.06-.63h-1.17q-4.682,0-7.38,9.72Q386.136,90.422,385.507,90.421Zm2.97,59.223c.839.121,1.26.51,1.26,1.17v.63a1.114,1.114,0,0,1-1.26,1.26h-.54a1.114,1.114,0,0,1-1.26-1.26Q386.677,150.634,388.478,149.644Zm1.26-76.324a.557.557,0,0,1,.63.63l1.17-.63a4.73,4.73,0,0,0,2.43.63l.63-1.26V68.46h-.63Q390.365,68.46,389.738,73.32Zm10.351-8.55v3.06h.63c.839,0,1.26-.39,1.26-1.17V64.77Zm4.95,10.981v.63h1.8a4.74,4.74,0,0,1,2.43.63,4.74,4.74,0,0,1,2.43-.63v-.63a1.035,1.035,0,0,0-1.17-1.17h-4.32C405.427,74.7,405.038,75.091,405.038,75.75Z" style="fill: #fff"/>
          </g>
        </g>
      </g>
    </g>
  </g>
</svg>
