<svg xmlns="http://www.w3.org/2000/svg" viewBox="0 0 800 107">
  <title>cabel-b</title>
  <g id="Layer_2" data-name="Layer 2">
    <g id="Layer_1-2" data-name="Layer 1">
      <g>
        <rect x="116" y="47.5" width="684" height="12" style="fill: #c7c7c7"/>
        <g>
          <path d="M12,10.5H68.25A13.75,13.75,0,0,1,82,24.25v58.5A13.75,13.75,0,0,1,68.25,96.5H12a0,0,0,0,1,0,0v-86A0,0,0,0,1,12,10.5Z" style="fill: #b31d20"/>
          <path d="M95,31.5h21a0,0,0,0,1,0,0v44a0,0,0,0,1,0,0H95a13,13,0,0,1-13-13v-18A13,13,0,0,1,95,31.5Z" transform="translate(198 107) rotate(180)" style="fill: #c7c7c7"/>
          <rect width="12" height="107" transform="translate(12 107) rotate(180)" style="fill: #c7c7c7"/>
          <path d="M12,83.428A89.862,89.862,0,0,0,46.25,62.75C63.156,46.315,69.831,26.382,72.386,11.135A13.754,13.754,0,0,1,82,24.25V60.5A107.029,107.029,0,0,1,65.5,83,107.227,107.227,0,0,1,49.765,96.5H12Z" style="opacity: 0.2"/>
          <path d="M65.5,83A107.029,107.029,0,0,0,82,60.5V82.75A13.75,13.75,0,0,1,68.25,96.5H49.765A107.227,107.227,0,0,0,65.5,83Z" style="opacity: 0.3"/>
          <path d="M115.507,40.991A12.985,12.985,0,0,1,116,44.5v18a13,13,0,0,1-13,13H83.558A54.791,54.791,0,0,0,101.75,64C105.807,60.057,111.55,53.082,115.507,40.991Z" style="opacity: 0.2"/>
          <rect x="12" y="10.5" width="7.5" height="86" style="opacity: 0.2"/>
        </g>
      </g>
    </g>
  </g>
</svg>
