<svg xmlns="http://www.w3.org/2000/svg" viewBox="0 0 801 107">
  <title>cabel-a</title>
  <g id="Layer_2" data-name="Layer 2">
    <g id="Layer_1-2" data-name="Layer 1">
      <g>
        <rect y="47.5" width="640" height="12" transform="translate(640 107) rotate(180)" style="fill: #c7c7c7"/>
        <g>
          <g>
            <g>
              <path d="M762,70.25h38a0,0,0,0,1,0,0v12a0,0,0,0,1,0,0H762a6,6,0,0,1-6-6v0A6,6,0,0,1,762,70.25Z" transform="translate(1556 152.5) rotate(180)" style="fill: #b31d20"/>
              <path d="M794,83.25H755v-14h39a7,7,0,0,1,0,14Zm-37-2h37a5,5,0,0,0,0-10H757Z" style="fill: #b31d20"/>
              <path d="M794,83.25H755v-14h39a7,7,0,0,1,0,14Zm-37-2h37a5,5,0,0,0,0-10H757Z" style="opacity: 0.3"/>
            </g>
            <g>
              <path d="M762,24.75h38a0,0,0,0,1,0,0v12a0,0,0,0,1,0,0H762a6,6,0,0,1-6-6v0A6,6,0,0,1,762,24.75Z" transform="translate(1556 61.499) rotate(180)" style="fill: #b31d20"/>
              <path d="M794,37.75H755v-14h39a7,7,0,0,1,0,14Zm-37-2h37a5,5,0,0,0,0-10H757Z" style="fill: #b31d20"/>
              <path d="M794,37.75H755v-14h39a7,7,0,0,1,0,14Zm-37-2h37a5,5,0,0,0,0-10H757Z" style="opacity: 0.3"/>
            </g>
          </g>
          <path d="M674,10.5h56.25A13.75,13.75,0,0,1,744,24.25v58.5A13.75,13.75,0,0,1,730.25,96.5H674a0,0,0,0,1,0,0v-86A0,0,0,0,1,674,10.5Z" transform="translate(1418 107) rotate(180)" style="fill: #b31d20"/>
          <path d="M653,31.5h21a0,0,0,0,1,0,0v44a0,0,0,0,1,0,0H653a13,13,0,0,1-13-13v-18A13,13,0,0,1,653,31.5Z" style="fill: #c7c7c7"/>
          <rect x="744" width="12" height="107" style="fill: #c7c7c7"/>
          <path d="M744,83.428A89.862,89.862,0,0,1,709.75,62.75c-16.906-16.435-23.581-36.368-26.136-51.615A13.754,13.754,0,0,0,674,24.25V60.5A107.029,107.029,0,0,0,690.5,83a107.227,107.227,0,0,0,15.735,13.5H744Z" style="opacity: 0.2"/>
          <path d="M690.5,83A107.029,107.029,0,0,1,674,60.5V82.75A13.75,13.75,0,0,0,687.75,96.5h18.485A107.227,107.227,0,0,1,690.5,83Z" style="opacity: 0.3"/>
          <path d="M640.493,40.991A12.985,12.985,0,0,0,640,44.5v18a13,13,0,0,0,13,13h19.442A54.791,54.791,0,0,1,654.25,64C650.193,60.057,644.45,53.082,640.493,40.991Z" style="opacity: 0.2"/>
          <rect x="736.5" y="10.5" width="7.5" height="86" transform="translate(1480.5 107) rotate(180)" style="opacity: 0.2"/>
        </g>
      </g>
    </g>
  </g>
</svg>
